<?xml version="1.0" encoding="UTF-8" standalone="no"?><!DOCTYPE svg PUBLIC "-//W3C//DTD SVG 1.1//EN" "http://www.w3.org/Graphics/SVG/1.1/DTD/svg11.dtd"><svg width="100%" height="100%" viewBox="0 0 1939 713" version="1.1" xmlns="http://www.w3.org/2000/svg" xmlns:xlink="http://www.w3.org/1999/xlink" xml:space="preserve" xmlns:serif="http://www.serif.com/" style="fill-rule:evenodd;clip-rule:evenodd;stroke-linejoin:round;stroke-miterlimit:2;"><path d="M261.867,305.25c123.436,-60.524 299.254,-103.635 495.065,-121.39c2.614,-0.238 4.54,-2.549 4.304,-5.163c-0.237,-2.616 -2.556,-4.545 -5.162,-4.305c-196.939,17.858 -373.937,61.3 -498.391,122.322c-2.356,1.156 -3.331,4.004 -2.175,6.36c0.826,1.683 2.515,2.662 4.271,2.662c0.702,0 1.415,-0.157 2.088,-0.487Zm1413.429,-1.737c1.16,-2.355 0.188,-5.204 -2.166,-6.363c-125.803,-61.894 -305.13,-105.67 -504.941,-123.265c-2.568,-0.222 -4.92,1.701 -5.152,4.317c-0.229,2.614 1.702,4.92 4.318,5.15c198.668,17.496 376.803,60.94 501.58,122.327c0.674,0.332 1.389,0.488 2.095,0.488c1.754,0 3.44,-0.975 4.266,-2.654Zm-1233.793,-12.411c85.302,-28.845 206.901,-50.192 342.4,-60.105c2.616,-0.193 4.585,-2.471 4.392,-5.087c-0.191,-2.618 -2.464,-4.582 -5.087,-4.392c-136.274,9.97 -258.709,31.486 -344.751,60.582c-2.486,0.841 -3.82,3.537 -2.98,6.023c0.671,1.982 2.521,3.234 4.503,3.234c0.504,0 1.019,-0.083 1.522,-0.254Zm1052.988,-2.989c0.842,-2.486 -0.494,-5.183 -2.98,-6.025c-93.107,-31.48 -226.622,-53.727 -375.947,-62.645c-2.605,-0.18 -4.87,1.839 -5.028,4.461c-0.155,2.62 1.842,4.871 4.463,5.027c148.505,8.869 281.14,30.945 373.469,62.161c0.504,0.171 1.018,0.252 1.523,0.252c1.98,0 3.83,-1.25 4.501,-3.231Zm49.848,331.525c2.565,-0.547 4.201,-3.071 3.655,-5.638c-0.546,-2.566 -3.073,-4.202 -5.639,-3.657c-137.925,29.422 -348.221,46.296 -576.968,46.296c-228.728,0 -439.013,-16.871 -576.938,-46.289c-2.563,-0.545 -5.092,1.089 -5.64,3.656c-0.548,2.566 1.09,5.093 3.657,5.638c138.548,29.552 349.555,46.499 578.921,46.499c229.384,0 440.404,-16.95 578.952,-46.506Zm-578.96,92.908c-156.374,0 -305.835,-8.51 -444.229,-25.293c-132.111,-16.019 -249.346,-39.435 -339.033,-67.714c-2.503,-0.789 -3.893,-3.46 -3.104,-5.962c0.789,-2.503 3.46,-3.892 5.962,-3.104c186.573,58.828 471.02,92.568 780.404,92.568c309.417,0 593.88,-33.745 780.45,-92.581c2.503,-0.789 5.175,0.599 5.963,3.103c0.789,2.504 -0.6,5.171 -3.103,5.962c-89.683,28.283 -206.923,51.702 -339.045,67.723c-138.404,16.786 -287.876,25.298 -444.265,25.298" style="fill:#c89525;fill-rule:nonzero;"/><path d="M1061.211,119.96c-3.834,16.135 -16.238,28.619 -32.37,32.584l-2.459,0.605l-31.992,87.543l-68.139,0l-2.76,-13.217l54.145,0c2.623,0 4.753,-2.127 4.753,-4.753c0,-2.624 -2.13,-4.751 -4.753,-4.751l-56.128,0l-2.479,-11.881l53.344,0c2.623,0 4.753,-2.128 4.753,-4.753c0,-2.625 -2.13,-4.752 -4.753,-4.752l-55.328,0l-2.479,-11.881l50.613,0c2.626,0 4.753,-2.128 4.753,-4.753c0,-2.625 -2.127,-4.753 -4.753,-4.753l-52.598,0l-4.483,-21.483l-3.19,-0.544c-21.196,-3.615 -36.58,-21.864 -36.58,-43.394c0,-24.28 19.754,-44.034 44.035,-44.034c6.274,0 12.35,1.304 18.058,3.875l5.475,2.466l1.142,-5.896c2.561,-13.226 14.21,-22.826 27.702,-22.826c13.72,0 25.405,9.796 27.782,23.291l1.089,6.183l5.655,-2.728c9.079,-4.377 19.477,-5.502 29.293,-3.172c11.44,2.72 21.141,9.734 27.307,19.749c6.171,10.016 8.071,21.832 5.347,33.275Zm2.747,-38.261c-7.5,-12.175 -19.291,-20.705 -33.205,-24.01c-10.06,-2.392 -20.636,-1.79 -30.324,1.65c-5.133,-15.058 -19.329,-25.483 -35.69,-25.483c-16.129,0 -30.289,10.269 -35.553,25.089c-5.412,-1.799 -11.049,-2.708 -16.825,-2.708c-29.523,0 -53.54,24.018 -53.54,53.54c0,25.076 17.169,46.494 41.271,52.116l2.777,13.305l-4.524,0c-2.623,0 -4.753,2.127 -4.753,4.753c0,2.625 2.13,4.753 4.753,4.753l6.507,0l2.482,11.881l-1.797,0c-2.623,0 -4.753,2.127 -4.753,4.752c0,2.625 2.13,4.753 4.753,4.753l3.78,0l2.479,11.881l-0.996,0c-2.625,0 -4.753,2.127 -4.753,4.751c0,2.626 2.127,4.753 4.753,4.753l2.98,0l4.742,22.723l82.513,0l32.557,-89.095c18.395,-5.45 32.404,-20.164 36.866,-38.943c3.308,-13.913 1,-28.283 -6.501,-40.46" style="fill:#c89525;fill-rule:nonzero;"/><path d="M903.391,11.868l13.197,4.475l11.166,-8.334l-0.177,13.933l11.378,8.047l-13.306,4.136l-4.136,13.306l-8.047,-11.377l-13.933,0.178l8.334,-11.167l-4.475,-13.198Z" style="fill:#c89525;fill-rule:nonzero;"/><path d="M997.923,31.115l8.589,-3.86l1.689,-9.263l6.324,6.977l9.332,-1.255l-4.68,8.17l4.077,8.487l-9.216,-1.929l-6.811,6.502l-1.017,-9.361l-8.287,-4.47Z" style="fill:#c89525;fill-rule:nonzero;"/><path d="M960.266,5.18l5.723,-0.296l3.003,-4.884l2.052,5.353l5.57,1.345l-4.456,3.605l0.442,5.714l-4.805,-3.125l-5.297,2.188l1.486,-5.536l-3.716,-4.363Z" style="fill:#c89525;fill-rule:nonzero;"/><path d="M849.979,50.99l7.842,4.993l8.562,-3.627l-2.328,8.999l6.095,7.022l-9.28,0.567l-4.791,7.968l-3.409,-8.648l-9.058,-2.097l7.173,-5.915l-0.807,-9.261Z" style="fill:#c89525;fill-rule:nonzero;"/><path d="M1048.937,44.628l7.595,1.712l5.714,-5.287l0.719,7.752l6.796,3.802l-7.15,3.079l-1.517,7.638l-5.139,-5.85l-7.73,0.918l3.975,-6.695l-3.263,-7.069Z" style="fill:#c89525;fill-rule:nonzero;"/><path d="M0,397.215l135.604,-0.654l0.153,31.841l-49.606,0.239l0.65,134.493l-36.623,0.177l-0.65,-134.495l-49.374,0.24l-0.154,-31.841Z" style="fill:#c89525;fill-rule:nonzero;"/><path d="M155.307,396.467l36.624,-0.178l0.335,69.386l73.481,-0.354l-0.335,-69.386l36.625,-0.178l0.802,166.335l-36.624,0.177l-0.315,-65.584l-73.482,0.353l0.317,65.585l-36.624,0.177l-0.803,-166.333Z" style="fill:#c89525;fill-rule:nonzero;"/><path d="M382.275,499.211l51.228,-0.246l-25.81,-64.509l-25.418,64.755Zm76.101,62.13l-12.906,-32.256l-75.103,0.362l-12.593,32.379l-37.783,0.183l69.665,-166.675l37.783,-0.183l70.11,166.002l-39.174,0.188Z" style="fill:#c89525;fill-rule:nonzero;"/><path d="M625.857,394.192l34.77,-0.166l0.803,166.335l-33.378,0.16l-79.097,-106.55l0.515,106.929l-35.002,0.171l-0.803,-166.335l33.382,-0.163l79.33,107.025l-0.519,-107.405Z" style="fill:#c89525;fill-rule:nonzero;"/><path d="M790.936,521.594c7.165,-4.389 12.735,-10.475 16.719,-18.259c3.978,-7.78 5.945,-16.662 5.896,-26.642c-0.047,-9.981 -2.215,-18.917 -6.503,-26.818c-4.291,-7.9 -10.114,-14.01 -17.475,-18.333c-7.36,-4.319 -15.677,-6.459 -24.948,-6.414l-31.526,0.152l0.498,103.127l33.147,-0.16c8.96,-0.043 17.026,-2.26 24.191,-6.652Zm18.555,-117.715c13.015,6.989 23.146,16.76 30.393,29.321c7.246,12.558 10.908,26.916 10.985,43.075c0.078,16.159 -3.525,30.554 -10.802,43.18c-7.28,12.63 -17.471,22.503 -30.57,29.615c-13.102,7.113 -28.077,10.709 -44.919,10.792l-67.452,0.323l-0.803,-166.333l68.844,-0.333c16.533,-0.078 31.311,3.378 44.325,10.36" style="fill:#c89525;fill-rule:nonzero;"/><path d="M921.581,429.953c-7.708,4.712 -13.78,11.117 -18.22,19.217c-4.446,8.101 -6.64,16.985 -6.595,26.643c0.05,9.825 2.37,18.763 6.97,26.818c4.596,8.059 10.732,14.445 18.404,19.16c7.673,4.715 15.988,7.051 24.954,7.009c8.96,-0.043 17.178,-2.419 24.652,-7.13c7.47,-4.707 13.392,-11.152 17.755,-19.333c4.364,-8.178 6.525,-17.175 6.476,-27.002c-0.046,-9.659 -2.292,-18.521 -6.735,-26.579c-4.442,-8.059 -10.425,-14.405 -17.941,-19.043c-7.519,-4.634 -15.76,-6.932 -24.72,-6.89c-8.965,0.041 -17.297,2.423 -25,7.13Zm68.706,-28.964c13.327,7.382 23.844,17.587 31.558,30.619c7.714,13.033 11.609,27.55 11.683,43.546c0.077,16.002 -3.675,30.594 -11.262,43.779c-7.585,13.188 -18.007,23.573 -31.259,31.162c-13.255,7.589 -27.993,11.422 -44.218,11.502c-16.228,0.077 -31.005,-3.614 -44.329,-11.075c-13.329,-7.458 -23.847,-17.706 -31.56,-30.739c-7.711,-13.031 -11.607,-27.627 -11.686,-43.787c-0.075,-15.996 3.678,-30.55 11.265,-43.656c7.586,-13.108 17.967,-23.411 31.145,-30.922c13.176,-7.51 27.953,-11.304 44.335,-11.383c16.227,-0.08 31,3.575 44.328,10.956" style="fill:#c89525;fill-rule:nonzero;"/><path d="M1104.243,429.07c-7.707,4.712 -13.777,11.119 -18.221,19.219c-4.443,8.101 -6.639,16.985 -6.594,26.643c0.049,9.825 2.371,18.762 6.969,26.818c4.597,8.06 10.734,14.445 18.408,19.161c7.669,4.714 15.985,7.051 24.95,7.006c8.962,-0.043 17.179,-2.418 24.654,-7.128c7.472,-4.707 13.391,-11.153 17.755,-19.335c4.367,-8.178 6.523,-17.176 6.476,-27.003c-0.046,-9.659 -2.291,-18.52 -6.736,-26.581c-4.442,-8.056 -10.423,-14.402 -17.939,-19.04c-7.52,-4.635 -15.763,-6.934 -24.723,-6.892c-8.963,0.043 -17.297,2.423 -24.999,7.13Zm68.706,-28.964c13.324,7.383 23.846,17.586 31.557,30.62c7.713,13.031 11.609,27.552 11.686,43.546c0.078,16.004 -3.678,30.594 -11.263,43.777c-7.585,13.188 -18.007,23.576 -31.26,31.162c-13.255,7.59 -27.993,11.423 -44.218,11.503c-16.226,0.077 -31.004,-3.615 -44.328,-11.074c-13.329,-7.461 -23.846,-17.707 -31.559,-30.74c-7.712,-13.032 -11.609,-27.628 -11.686,-43.788c-0.078,-15.995 3.678,-30.55 11.263,-43.656c7.587,-13.107 17.969,-23.412 31.145,-30.923c13.178,-7.507 27.952,-11.303 44.336,-11.382c16.224,-0.079 30.998,3.575 44.327,10.955" style="fill:#c89525;fill-rule:nonzero;"/><path d="M1276.945,478.494l33.842,-0.165c10.2,-0.048 18.03,-2.499 23.491,-7.359c5.463,-4.856 8.175,-11.957 8.128,-21.306c-0.043,-9.185 -2.824,-16.104 -8.329,-20.752c-5.51,-4.643 -13.363,-6.946 -23.563,-6.895l-33.842,0.163l0.273,56.315Zm63.429,78.585l-25.96,-47.399l-3.477,0.015l-33.842,0.164l0.23,47.525l-36.626,0.176l-0.802,-166.335l70.468,-0.34c21.169,-0.101 37.575,4.851 49.213,14.852c11.641,10.007 17.504,24.195 17.593,42.57c0.062,12.829 -2.474,23.815 -7.606,32.945c-5.133,9.138 -12.637,16.101 -22.5,20.902l34.801,54.724l-41.492,0.2Z" style="fill:#c89525;fill-rule:nonzero;"/><path d="M1461.962,390.155l36.623,-0.176l0.335,69.384l73.481,-0.355l-0.334,-69.386l36.624,-0.176l0.804,166.335l-36.623,0.176l-0.318,-65.584l-73.481,0.355l0.319,65.586l-36.625,0.175l-0.804,-166.333Z" style="fill:#c89525;fill-rule:nonzero;"/><path d="M1688.687,514.882c6.599,6.86 15.386,10.264 26.361,10.21c10.662,-0.051 19.143,-3.498 25.448,-10.341c6.303,-6.841 9.424,-16.28 9.366,-28.322l-0.471,-97.662l36.625,-0.178l0.474,97.663c0.067,14.575 -2.766,27.22 -8.512,37.942c-5.743,10.722 -14.012,18.999 -24.799,24.833c-10.793,5.837 -23.528,8.79 -38.205,8.859c-14.685,0.07 -27.524,-2.758 -38.522,-8.488c-11.002,-5.728 -19.465,-13.927 -25.385,-24.59c-5.924,-10.665 -8.921,-23.284 -8.992,-37.859l-0.471,-97.662l36.625,-0.177l0.47,97.663c0.059,11.881 3.386,21.249 9.988,28.109" style="fill:#c89525;fill-rule:nonzero;"/><path d="M1802.935,388.507l135.603,-0.654l0.155,31.841l-49.604,0.239l0.65,134.493l-36.627,0.177l-0.65,-134.495l-49.371,0.24l-0.155,-31.842Z" style="fill:#c89525;fill-rule:nonzero;"/><path d="M701.075,285.257l17.522,-0.037l0.07,32.38l35.152,-0.077l-0.07,-32.38l17.52,-0.039l0.167,77.623l-17.522,0.04l-0.065,-30.608l-35.152,0.077l0.066,30.607l-17.522,0.037l-0.167,-77.623Z" style="fill:#c89525;fill-rule:nonzero;"/><path d="M852.7,302.285c-3.693,2.189 -6.606,5.171 -8.742,8.943c-2.138,3.776 -3.198,7.922 -3.189,12.428c0.01,4.586 1.109,8.759 3.297,12.523c2.188,3.765 5.115,6.755 8.782,8.965c3.663,2.21 7.638,3.313 11.927,3.304c4.288,-0.011 8.222,-1.11 11.804,-3.299c3.578,-2.187 6.42,-5.188 8.518,-9.001c2.099,-3.812 3.144,-8.008 3.133,-12.592c-0.01,-4.508 -1.072,-8.648 -3.188,-12.413c-2.113,-3.766 -4.967,-6.735 -8.557,-8.908c-3.592,-2.172 -7.529,-3.255 -11.817,-3.245c-4.288,0.01 -8.278,1.108 -11.969,3.296Zm32.905,-13.434c6.365,3.463 11.383,8.24 15.055,14.328c3.675,6.092 5.518,12.87 5.533,20.336c0.017,7.469 -1.8,14.275 -5.445,20.417c-3.646,6.145 -8.645,10.982 -14.993,14.502c-6.353,3.527 -13.409,5.296 -21.171,5.314c-7.761,0.017 -14.824,-1.722 -21.192,-5.221c-6.365,-3.496 -11.383,-8.292 -15.055,-14.384c-3.672,-6.092 -5.516,-12.907 -5.533,-20.447c-0.017,-7.466 1.8,-14.254 5.445,-20.361c3.647,-6.105 8.627,-10.904 14.94,-14.394c6.313,-3.485 13.388,-5.237 21.225,-5.255c7.762,-0.016 14.825,1.705 21.191,5.165" style="fill:#c89525;fill-rule:nonzero;"/><path d="M947.697,284.726l64.871,-0.14l0.032,14.86l-23.73,0.051l0.135,62.764l-17.52,0.038l-0.135,-62.764l-23.62,0.051l-0.033,-14.859Z" style="fill:#c89525;fill-rule:nonzero;"/><path d="M1061.914,284.48l59.106,-0.126l0.03,14.526l-41.584,0.089l0.037,16.855l37.37,-0.082l0.032,14.529l-37.371,0.082l0.037,17.188l42.803,-0.092l0.032,14.528l-60.326,0.127l-0.167,-77.623Z" style="fill:#c89525;fill-rule:nonzero;"/><path d="M1175.908,284.236l17.522,-0.037l0.135,62.32l33.267,-0.072l0.032,15.303l-50.789,0.109l-0.167,-77.623Z" style="fill:#c89525;fill-rule:nonzero;"/></svg>